<svg width="32" height="22" viewBox="0 0 32 22" fill="none" xmlns="http://www.w3.org/2000/svg">
<g clip-path="url(#clip0_514_1013)">
<path d="M30.8377 19.8637C30.8316 20.3911 30.6162 20.8945 30.239 21.2631C29.8618 21.6318 29.3536 21.8355 28.8262 21.8296H3.17364C2.64623 21.8355 2.13805 21.6318 1.76084 21.2631C1.38363 20.8945 1.16827 20.3911 1.16211 19.8637V2.13708C1.16502 1.87583 1.21935 1.61772 1.32202 1.37749C1.42468 1.13725 1.57366 0.919582 1.76045 0.736923C1.94724 0.554264 2.16819 0.410189 2.41066 0.312924C2.65314 0.215659 2.9124 0.167109 3.17364 0.170048H28.8262C29.0875 0.167109 29.3467 0.215659 29.5892 0.312924C29.8317 0.410189 30.0526 0.554264 30.2394 0.736923C30.4262 0.919582 30.5752 1.13725 30.6778 1.37749C30.7805 1.61772 30.8348 1.87583 30.8377 2.13708V19.8637Z" fill="white" fill-opacity="0.8"/>
<path d="M1.33239 2.13736V19.864C1.33884 20.3461 1.53636 20.806 1.88158 21.1427C2.22681 21.4794 2.69152 21.6653 3.1737 21.6597H28.8252C29.3074 21.6656 29.7723 21.4798 30.1176 21.143C30.4629 20.8063 30.6603 20.3462 30.6665 19.864V2.13736C30.6603 1.65509 30.4629 1.19502 30.1176 0.858285C29.7723 0.521551 29.3074 0.335725 28.8252 0.341664H3.1737C2.69152 0.336021 2.22681 0.521944 1.88158 0.858615C1.53636 1.19529 1.33884 1.65519 1.33239 2.13736M3.1737 22.0001C2.60123 22.0057 2.04993 21.7839 1.64086 21.3834C1.23179 20.9829 0.998401 20.4364 0.991943 19.864L0.991943 2.13736C0.998402 1.5648 1.23176 1.01819 1.64079 0.617498C2.04983 0.216805 2.60113 -0.00523611 3.1737 0.000104846H28.8252C29.3979 -0.00553269 29.9495 0.216377 30.3588 0.617102C30.7681 1.01783 31.0016 1.5646 31.008 2.13736V19.864C31.0013 20.4365 30.7676 20.983 30.3584 21.3835C29.9491 21.784 29.3977 22.0057 28.8252 22.0001H3.1737Z" fill="#126BAC"/>
<path d="M4.41867 15.811C4.41867 16.2271 4.71573 16.275 4.98052 16.275C6.14761 16.275 6.53033 15.3949 6.53033 14.5905C6.53033 13.5803 5.88281 12.8505 4.84033 12.8505C4.61782 12.8505 4.51546 12.8672 4.41867 12.8727V15.811ZM3.88463 13.2777C3.88463 12.7915 3.63097 12.8238 3.38843 12.8182V12.6836C3.5987 12.6936 3.81454 12.6936 4.02593 12.6936C4.23732 12.6936 4.55997 12.6836 4.96049 12.6836C6.35899 12.6836 7.12111 13.617 7.12111 14.575C7.12111 15.1101 6.80736 16.4552 4.89596 16.4552C4.62116 16.4552 4.36638 16.4441 4.11716 16.4441C3.86795 16.4441 3.63653 16.4441 3.39399 16.4552V16.315C3.71775 16.2817 3.87462 16.2716 3.8902 15.9034L3.88463 13.2777Z" fill="#231F20"/>
<path d="M7.88992 13.1477C7.8197 13.1477 7.75235 13.1199 7.70269 13.0702C7.65303 13.0205 7.62513 12.9532 7.62513 12.883C7.62513 12.8127 7.65303 12.7454 7.70269 12.6957C7.75235 12.6461 7.8197 12.6182 7.88992 12.6182C7.95939 12.6182 8.02607 12.6454 8.07561 12.6941C8.12514 12.7428 8.15355 12.8091 8.15472 12.8785C8.15473 12.9491 8.12697 13.017 8.07744 13.0673C8.0279 13.1177 7.96056 13.1466 7.88992 13.1477ZM7.3125 16.3086H7.41486C7.56617 16.3086 7.67409 16.3086 7.67409 16.1294V14.6653C7.67409 14.4283 7.59287 14.3949 7.3926 14.2881V14.2014C7.64627 14.1257 7.94889 14.0233 7.97114 14.0067C8.0005 13.9894 8.03388 13.9802 8.06794 13.98C8.09464 13.98 8.10576 14.0122 8.10576 14.0556V16.1328C8.10576 16.3119 8.22481 16.3119 8.37612 16.3119H8.46735V16.4521C8.28378 16.4521 8.09464 16.441 7.90105 16.441C7.70746 16.441 7.51165 16.441 7.3125 16.4521V16.3086Z" fill="#231F20"/>
<path d="M8.98361 14.6979C8.98361 14.4977 8.92354 14.4443 8.66987 14.3408V14.2407C8.91195 14.1668 9.14999 14.0802 9.38303 13.9814C9.39972 13.9814 9.41529 13.9915 9.41529 14.0348V14.3864C9.72347 14.1639 9.98827 13.9814 10.351 13.9814C10.8093 13.9814 10.9707 14.3152 10.9707 14.738V16.132C10.9707 16.3112 11.0908 16.3112 11.241 16.3112H11.3389V16.4514C11.1487 16.4514 10.9607 16.4402 10.766 16.4402C10.5713 16.4402 10.3766 16.4402 10.1819 16.4514V16.3112H10.2798C10.4311 16.3112 10.539 16.3112 10.539 16.132V14.7302C10.539 14.422 10.351 14.2707 10.0428 14.2707C9.86922 14.2707 9.59775 14.4109 9.41529 14.5299V16.132C9.41529 16.3112 9.53434 16.3112 9.68565 16.3112H9.78133V16.4514C9.59219 16.4514 9.40417 16.4402 9.20835 16.4402C9.01254 16.4402 8.82007 16.4402 8.62537 16.4514V16.3112H8.72327C8.87458 16.3112 8.9825 16.3112 8.9825 16.132L8.98361 14.6979Z" fill="#231F20"/>
<path d="M12.7062 14.7839C12.8408 14.7839 12.8564 14.7138 12.8564 14.6493C12.8564 14.3745 12.6884 14.1519 12.3857 14.1519C12.052 14.1519 11.8295 14.3945 11.7649 14.7839H12.7062ZM11.7493 14.9574C11.7369 15.0613 11.7369 15.1662 11.7493 15.2701C11.7805 15.7841 12.1109 16.2046 12.5426 16.2046C12.8408 16.2046 13.0733 16.0422 13.2725 15.843L13.3481 15.9187C13.0989 16.2525 12.7918 16.5295 12.3468 16.5295C11.4879 16.5295 11.3143 15.6973 11.3143 15.3513C11.3143 14.2921 12.0275 13.9795 12.4058 13.9795C12.843 13.9795 13.3136 14.2543 13.3192 14.8273C13.322 14.8598 13.322 14.8926 13.3192 14.9252L13.2702 14.9574H11.7493Z" fill="#231F20"/>
<path d="M13.4449 16.3085H13.5918C13.742 16.3085 13.8499 16.3085 13.8499 16.1293V14.6118C13.8499 14.4449 13.6508 14.4115 13.5696 14.3681V14.288C13.9634 14.12 14.1792 13.9799 14.2293 13.9799C14.2605 13.9799 14.2772 13.9954 14.2772 14.0499V14.5361H14.2883C14.4229 14.3259 14.6499 13.9799 14.9792 13.9799C15.0183 13.9779 15.0574 13.9838 15.0942 13.9972C15.131 14.0106 15.1648 14.0312 15.1935 14.0579C15.2222 14.0845 15.2453 14.1167 15.2614 14.1524C15.2776 14.1881 15.2864 14.2266 15.2874 14.2658C15.2892 14.3006 15.284 14.3355 15.2722 14.3683C15.2603 14.4011 15.2421 14.4313 15.2184 14.457C15.1948 14.4827 15.1663 14.5034 15.1346 14.5179C15.1029 14.5325 15.0686 14.5406 15.0337 14.5417C14.8657 14.5417 14.8657 14.4115 14.6766 14.4115C14.5687 14.4266 14.4697 14.4798 14.3975 14.5613C14.3253 14.6429 14.2846 14.7476 14.2827 14.8566V16.1327C14.2827 16.3118 14.394 16.3118 14.5419 16.3118H14.8434V16.452C14.5464 16.4464 14.3205 16.4409 14.088 16.4409C13.8555 16.4409 13.643 16.4409 13.4449 16.452V16.3085Z" fill="#231F20"/>
<path d="M15.5244 15.6973C15.5956 16.0533 15.8114 16.3559 16.2064 16.3559C16.5246 16.3559 16.6425 16.1612 16.6425 15.9732C16.6425 15.3346 15.4654 15.5404 15.4654 14.6715C15.4654 14.3678 15.7091 13.9795 16.3032 13.9795C16.5175 13.9847 16.7278 14.0384 16.9185 14.1364L16.9563 14.6871H16.8317C16.7783 14.3466 16.5891 14.1519 16.2431 14.1519C16.0273 14.1519 15.8226 14.2765 15.8226 14.5091C15.8226 15.141 17.0753 14.9463 17.0753 15.7941C17.0753 16.1512 16.7894 16.5295 16.1463 16.5295C15.9151 16.5229 15.689 16.4599 15.4877 16.3459L15.4276 15.724L15.5244 15.6973Z" fill="#231F20"/>
<path d="M21.9528 13.6546H21.8182C21.7147 13.0238 21.2619 12.7645 20.6622 12.7645C20.0403 12.7645 19.138 13.1806 19.138 14.4768C19.138 15.5682 19.9168 16.3515 20.7479 16.3515C21.0108 16.3515 21.265 16.2572 21.4642 16.0857C21.6635 15.9142 21.7946 15.6769 21.8338 15.4169L21.9584 15.4492L21.8338 16.2436C21.6113 16.3837 20.9971 16.5306 20.64 16.5306C19.3761 16.5306 18.5773 15.7151 18.5773 14.499C18.5773 13.3865 19.5652 12.5977 20.6244 12.5977C21.0616 12.5977 21.4833 12.7378 21.8983 12.8847L21.9528 13.6546Z" fill="#231F20"/>
<path d="M22.1475 16.3082H22.2498C22.4011 16.3082 22.509 16.3082 22.509 16.1291V13.1251C22.509 12.7736 22.4289 12.7635 22.2231 12.7035V12.6178C22.4149 12.5565 22.601 12.4787 22.7794 12.3853C22.8163 12.3609 22.8559 12.3407 22.8973 12.3252C22.9307 12.3252 22.9418 12.3586 22.9418 12.402V16.1324C22.9418 16.3115 23.0609 16.3115 23.2122 16.3115H23.3034V16.4517C23.1198 16.4517 22.9307 16.4406 22.736 16.4406C22.5413 16.4406 22.3477 16.4406 22.1475 16.4517V16.3082Z" fill="#231F20"/>
<path d="M25.6154 16.1512C25.6154 16.248 25.6744 16.2536 25.7667 16.2536C25.8312 16.2536 25.9125 16.248 25.9826 16.248V16.3593C25.7193 16.3968 25.4591 16.4529 25.2038 16.5273L25.1771 16.5106V16.0733C24.8533 16.3381 24.6041 16.5273 24.2202 16.5273C23.9287 16.5273 23.6261 16.3381 23.6261 15.8842V14.5035C23.6261 14.3622 23.605 14.2276 23.3024 14.2009V14.0985C23.4971 14.0985 23.9287 14.0607 23.9988 14.0607C24.0689 14.0607 24.0589 14.0985 24.0589 14.2176V15.6105C24.0589 15.7729 24.0589 16.2369 24.5284 16.2369C24.712 16.2369 24.9557 16.0967 25.1815 15.9087V14.4545C25.1815 14.3433 24.9223 14.2876 24.7287 14.232V14.1352C25.2149 14.1018 25.5175 14.0596 25.5709 14.0596C25.6243 14.0596 25.6143 14.0974 25.6143 14.1564L25.6154 16.1512Z" fill="#231F20"/>
<path d="M26.6924 15.8372C26.6986 15.9827 26.7592 16.1206 26.8622 16.2236C26.9652 16.3265 27.1031 16.3872 27.2486 16.3934C27.8272 16.3934 28.0697 15.8271 28.0697 15.3454C28.0697 14.7624 27.6247 14.2762 27.2064 14.2762C27.0061 14.2762 26.8381 14.4064 26.6924 14.531V15.8372ZM26.6924 14.3674C26.9082 14.185 27.2008 13.9792 27.4979 13.9792C28.1242 13.9792 28.4992 14.5254 28.4992 15.114C28.4992 15.8216 27.9807 16.5292 27.2075 16.5292C26.9454 16.5285 26.6876 16.4636 26.4565 16.34L26.2963 16.4658L26.185 16.4068C26.235 16.0888 26.2603 15.7674 26.2607 15.4455V13.1203C26.2607 12.7687 26.1795 12.7587 25.9736 12.6986V12.6129C26.1656 12.552 26.3517 12.4742 26.5299 12.3804C26.5675 12.3558 26.6078 12.3356 26.6501 12.3203C26.6823 12.3203 26.6924 12.3537 26.6924 12.3971V14.3674Z" fill="#231F20"/>
<path d="M3.38623 19.5887H3.4274C3.53309 19.5887 3.64991 19.5742 3.64991 19.4207V17.8809C3.64991 17.7285 3.53865 17.7129 3.4274 17.7129H3.38623V17.625C3.49749 17.625 3.67772 17.6372 3.82236 17.6372C3.96699 17.6372 4.145 17.625 4.28296 17.625V17.7129H4.2418C4.1361 17.7129 4.02485 17.7285 4.02485 17.8809V19.4207C4.02485 19.5742 4.1361 19.5887 4.2418 19.5887H4.28296V19.6766C4.14167 19.6766 3.96588 19.6655 3.81902 19.6655C3.67216 19.6655 3.50083 19.6766 3.38623 19.6766V19.5887Z" fill="#231F20"/>
<path d="M4.27071 19.6646V19.6023H4.24179C4.13721 19.6023 4.01149 19.5834 4.01149 19.4209V17.8811C4.01149 17.7187 4.13721 17.7009 4.24179 17.7009H4.27071V17.6386C4.13498 17.6386 3.96476 17.6497 3.82569 17.6497C3.68661 17.6497 3.51639 17.6386 3.40291 17.6386V17.7009H3.43072C3.5353 17.7009 3.66103 17.7187 3.66103 17.8811V19.4209C3.66103 19.5834 3.5353 19.6023 3.43072 19.6023H3.40291V19.6646C3.51417 19.6646 3.68216 19.6524 3.82235 19.6524C3.96253 19.6524 4.13498 19.6635 4.27405 19.6646M4.28629 19.6891C4.14388 19.6891 3.9681 19.6779 3.82235 19.6779C3.6766 19.6779 3.50526 19.6891 3.38956 19.6891H3.37732V19.5778H3.43072C3.54198 19.5778 3.63432 19.5667 3.63544 19.4232V17.8811C3.63544 17.7376 3.53753 17.7287 3.43072 17.7265H3.37732V17.6152H3.38956C3.50081 17.6152 3.68105 17.6264 3.82569 17.6264C3.97032 17.6264 4.14722 17.6152 4.28629 17.6152H4.29964V17.7265H4.24513C4.13387 17.7265 4.04152 17.7376 4.04041 17.8811V19.4209C4.04041 19.5645 4.13832 19.5734 4.24513 19.5756H4.29964V19.6868L4.28629 19.6891Z" fill="#231F20"/>
<path d="M6.30221 19.098L6.30777 19.0914V17.9899C6.31299 17.9542 6.31015 17.9177 6.29945 17.8831C6.28875 17.8486 6.27047 17.8169 6.24594 17.7903C6.22141 17.7638 6.19125 17.7431 6.15768 17.7296C6.1241 17.7162 6.08796 17.7105 6.05188 17.7129H5.98735V17.625C6.12643 17.625 6.26105 17.6372 6.39901 17.6372C6.51916 17.6372 6.64043 17.625 6.76059 17.625V17.7129H6.7172C6.59259 17.7129 6.45463 17.7363 6.45463 18.0867V19.4218C6.45302 19.5211 6.45897 19.6204 6.47244 19.7189H6.36118L4.84808 18.0311V19.2471C4.84808 19.503 4.89815 19.5909 5.124 19.5909H5.17406V19.6788C5.04834 19.6788 4.92151 19.6677 4.79579 19.6677C4.67007 19.6677 4.52766 19.6788 4.39526 19.6788V19.5909H4.44088C4.64448 19.5909 4.70567 19.453 4.70567 19.2182V17.9777C4.70582 17.9427 4.699 17.908 4.68561 17.8757C4.67221 17.8433 4.65252 17.814 4.62766 17.7893C4.60281 17.7647 4.57329 17.7452 4.54084 17.7321C4.50839 17.719 4.47365 17.7125 4.43865 17.7129H4.39971V17.625C4.51097 17.625 4.62223 17.6372 4.73349 17.6372C4.82138 17.6372 4.90705 17.625 4.99494 17.625L6.30221 19.098Z" fill="#231F20"/>
<path d="M6.30227 19.0983L6.31117 19.0894L6.30227 19.0983ZM6.36013 19.708H6.45803C6.44594 19.6139 6.44074 19.5191 6.44246 19.4243V18.0892C6.44246 17.7365 6.59043 17.7031 6.71726 17.7031H6.7473V17.6408C6.63604 17.6408 6.51589 17.6519 6.39906 17.6519C6.26444 17.6519 6.13316 17.6408 6.00076 17.6408V17.7031H6.05194C6.0896 17.701 6.12726 17.7072 6.16225 17.7213C6.19723 17.7354 6.22869 17.757 6.25439 17.7846C6.28009 17.8122 6.29939 17.8452 6.31094 17.8811C6.32248 17.917 6.32598 17.955 6.32119 17.9924V19.105V19.1105L6.31117 19.1194L4.99722 17.6386C4.91044 17.6386 4.82478 17.6497 4.73577 17.6497C4.62451 17.6497 4.51326 17.6386 4.4109 17.6386V17.7009H4.4376C4.47421 17.7005 4.51054 17.7073 4.54447 17.721C4.57841 17.7348 4.60927 17.7551 4.63526 17.7809C4.66125 17.8067 4.68185 17.8374 4.69586 17.8712C4.70987 17.905 4.71701 17.9413 4.71686 17.9779V19.2162C4.71686 19.451 4.65121 19.6012 4.43983 19.6023H4.40756V19.6657C4.53439 19.6657 4.66568 19.6535 4.79362 19.6535C4.92157 19.6535 5.0395 19.6646 5.16077 19.6657V19.6034H5.12295C4.89153 19.6034 4.83479 19.5022 4.83479 19.2463V18.0013L6.36013 19.708ZM6.47138 19.7336H6.35011L4.85927 18.0669V19.2474C4.85927 19.5033 4.90154 19.5811 5.12295 19.5811H5.18636V19.6924H5.17301C5.04618 19.6924 4.91934 19.6813 4.79362 19.6813C4.6679 19.6813 4.52772 19.6924 4.39421 19.6924H4.38086V19.5811H4.44094C4.63564 19.5811 4.69127 19.4554 4.69349 19.2218V17.9779C4.6935 17.9446 4.68688 17.9117 4.67404 17.8809C4.66119 17.8502 4.64237 17.8223 4.61867 17.7989C4.59497 17.7756 4.56685 17.7571 4.53596 17.7447C4.50507 17.7322 4.47201 17.726 4.43871 17.7265H4.38642V17.6152H4.39977C4.51103 17.6152 4.62229 17.6264 4.73354 17.6264C4.82033 17.6264 4.90599 17.6152 5.00501 17.6197L6.29671 19.0738V17.9902C6.29671 17.7565 6.13872 17.7287 6.05306 17.7265H5.97629V17.6152H5.98853C6.1276 17.6152 6.26333 17.6264 6.40018 17.6264C6.51922 17.6264 6.64049 17.6152 6.76176 17.6152H6.77734V17.7265H6.7206C6.59933 17.7265 6.47472 17.7398 6.47027 18.087V19.4221C6.46858 19.5206 6.47453 19.6192 6.48807 19.7169V19.7313L6.47138 19.7336Z" fill="#231F20"/>
<path d="M7.20119 17.7723C6.97867 17.7723 6.972 17.8257 6.92749 18.0404H6.8396C6.85073 17.9581 6.86519 17.8757 6.8752 17.7901C6.88637 17.7075 6.89195 17.6242 6.89189 17.5409H6.96309C6.98646 17.6287 7.05989 17.6254 7.13999 17.6254H8.65532C8.73542 17.6254 8.80885 17.6254 8.81441 17.5342L8.88451 17.5464C8.87338 17.6254 8.86114 17.7044 8.85336 17.7845C8.84557 17.8646 8.85336 17.9425 8.85336 18.0226L8.76435 18.0549C8.76435 17.9436 8.74432 17.7723 8.54183 17.7723H8.05898V19.3365C8.05898 19.5591 8.16245 19.5891 8.30374 19.5891H8.35937V19.677C8.24812 19.677 8.03895 19.6659 7.87985 19.6659C7.72076 19.6659 7.49824 19.677 7.38365 19.677V19.5891H7.44484C7.60727 19.5891 7.68849 19.5746 7.68849 19.3421V17.7723H7.20119Z" fill="#231F20"/>
<path d="M8.35939 19.693C8.24813 19.693 8.03786 19.6818 7.87987 19.6818C7.70409 19.6818 7.49826 19.693 7.38366 19.693H7.37031V19.5817H7.44486C7.60729 19.5817 7.66737 19.5817 7.67516 19.3481V17.7905H7.2012V17.7638H7.69518V19.3469C7.69518 19.5828 7.60062 19.6073 7.43929 19.6073H7.3959V19.6696C7.50716 19.6696 7.70965 19.6573 7.87987 19.6573C8.0501 19.6573 8.22922 19.6685 8.34604 19.6696V19.6073H8.30376C8.16135 19.6073 8.04676 19.5717 8.04676 19.3414V17.7593H8.54185C8.73878 17.7593 8.76437 17.9284 8.77104 18.0374L8.83446 18.0141C8.83446 17.9373 8.83446 17.8605 8.84002 17.7827C8.84558 17.7048 8.85893 17.6325 8.87006 17.5602L8.82556 17.5535C8.81221 17.638 8.72988 17.6436 8.65533 17.6425H7.12444C7.05546 17.6425 6.9798 17.6425 6.9531 17.5568H6.90526C6.90444 17.6365 6.89849 17.716 6.88746 17.7949C6.87856 17.8761 6.86521 17.954 6.85519 18.0319H6.9175C6.95644 17.8261 6.98091 17.7604 7.2012 17.7626V17.7893C6.97869 17.7893 6.98759 17.8294 6.93975 18.0463V18.0564H6.82849V18.0419C6.84073 17.9596 6.85519 17.8772 6.86409 17.7916C6.87619 17.7098 6.88214 17.6272 6.88189 17.5446V17.5312H6.97535V17.5401C6.99538 17.6147 7.04989 17.6147 7.12444 17.6169H8.65533C8.73766 17.6169 8.79663 17.6169 8.80219 17.5368V17.5234H8.81554L8.89899 17.5368V17.5501C8.88675 17.6291 8.87562 17.7081 8.86672 17.7871C8.85782 17.8661 8.86672 17.944 8.86672 18.0241V18.033H8.85782L8.75435 18.0708V18.0541C8.74657 17.9429 8.73544 17.7838 8.54964 17.7838H8.07235V19.3369C8.07235 19.5594 8.16358 19.5739 8.30376 19.5761H8.37163V19.6874L8.35939 19.693Z" fill="#231F20"/>
<path d="M8.97913 19.5887H9.02029C9.13155 19.5887 9.24281 19.5742 9.24281 19.4207V17.8809C9.24281 17.7285 9.13155 17.7129 9.02029 17.7129H8.97913V17.625C9.15825 17.625 9.46421 17.6372 9.71009 17.6372C9.95596 17.6372 10.2664 17.625 10.4633 17.625C10.4633 17.7518 10.4633 17.9454 10.4689 18.07L10.381 18.0934C10.3665 17.9031 10.3309 17.7507 10.0227 17.7507H9.6144V18.5195H9.96375C10.1395 18.5195 10.1785 18.4205 10.1963 18.2614H10.2842C10.2842 18.3726 10.2753 18.4906 10.2753 18.6052C10.2753 18.7198 10.2753 18.8277 10.2842 18.9389L10.1963 18.9567C10.1785 18.781 10.1696 18.6664 9.96709 18.6664H9.6144V19.3584C9.6144 19.5497 9.78463 19.5497 9.97265 19.5497C10.3253 19.5497 10.4811 19.5264 10.569 19.1915L10.6513 19.2115C10.6135 19.3673 10.5779 19.523 10.5512 19.6788C10.3632 19.6788 10.0249 19.6677 9.76126 19.6677C9.49758 19.6677 9.14712 19.6788 8.98246 19.6788L8.97913 19.5887Z" fill="#231F20"/>
<path d="M10.5401 19.6646C10.5668 19.5155 10.6001 19.3675 10.6357 19.2196L10.5779 19.2051C10.49 19.5333 10.3198 19.5633 9.97264 19.5611C9.78684 19.5611 9.60216 19.5611 9.60104 19.3564V18.6588H9.96597C10.1718 18.6588 10.1885 18.7812 10.2074 18.9481L10.2708 18.9347C10.2652 18.8235 10.2619 18.7178 10.2619 18.6099C10.2619 18.502 10.2619 18.3874 10.2708 18.2761H10.2074C10.1907 18.4296 10.1429 18.5376 9.96374 18.5353H9.60104V17.7398H10.0227C10.3287 17.7398 10.3787 17.8956 10.3921 18.0803L10.4555 18.0636C10.4555 17.9802 10.4466 17.8734 10.4466 17.7754C10.4466 17.7254 10.4466 17.6775 10.4466 17.6364C10.2474 17.6364 9.94928 17.6475 9.70674 17.6475C9.4642 17.6475 9.16825 17.6364 8.98802 17.6364V17.6987H9.01694C9.12152 17.6987 9.24613 17.7165 9.24725 17.8789V19.4187C9.24725 19.5811 9.12152 19.5989 9.01694 19.6001H8.99135V19.6624C9.16269 19.6624 9.50314 19.6501 9.76125 19.6501C10.0194 19.6501 10.3509 19.6613 10.5401 19.6624M10.5512 19.6868C10.3632 19.6868 10.0249 19.6757 9.76125 19.6757C9.49757 19.6757 9.14711 19.6868 8.98245 19.6868H8.97021V19.5756H9.02362C9.13488 19.5756 9.22722 19.5645 9.22833 19.4209V17.8811C9.22833 17.7376 9.13043 17.7287 9.02362 17.7265H8.97021V17.6152H8.98245C9.16158 17.6152 9.46753 17.6264 9.71341 17.6264C9.95929 17.6264 10.2697 17.6152 10.4666 17.6152H10.4789V17.6286C10.4789 17.672 10.4789 17.7243 10.4789 17.7799C10.4789 17.8811 10.4789 17.9924 10.4878 18.077V18.087H10.4778L10.3743 18.1137V18.0981C10.3565 17.9078 10.3309 17.7643 10.0283 17.7643H9.62663V18.5086H9.9604C10.1295 18.5086 10.1596 18.4196 10.1829 18.2616V18.2494H10.2942V18.2628C10.2942 18.374 10.2853 18.4919 10.2853 18.6065C10.2853 18.7211 10.2853 18.8291 10.2942 18.9403V18.9503H10.2831L10.1807 18.9703V18.957C10.1607 18.7768 10.1596 18.6789 9.95818 18.6766H9.62441V19.3442C9.62441 19.5233 9.77905 19.5222 9.97042 19.5233C10.3242 19.5233 10.4655 19.5033 10.5545 19.1739V19.1617H10.5668L10.6602 19.1862V19.1984C10.6224 19.3542 10.5868 19.5088 10.5601 19.6646V19.6746L10.5512 19.6868Z" fill="#231F20"/>
<path d="M11.4245 18.6184H11.5681C11.8618 18.6184 12.0209 18.5071 12.0209 18.16C12.025 18.1026 12.0168 18.0449 11.9966 17.9909C11.9765 17.9369 11.945 17.8879 11.9043 17.8472C11.8636 17.8064 11.8145 17.7749 11.7605 17.7548C11.7066 17.7347 11.6489 17.7264 11.5914 17.7306C11.5356 17.7311 11.4799 17.7352 11.4245 17.7428V18.6184ZM11.0485 17.9364C11.0485 17.7217 10.9306 17.7139 10.8393 17.7139H10.7826V17.626C10.8772 17.626 11.0596 17.6382 11.2387 17.6382C11.4179 17.6382 11.5558 17.626 11.7116 17.626C12.081 17.626 12.4114 17.7261 12.4114 18.1433C12.4114 18.4081 12.2345 18.5694 12.0031 18.6607L12.5049 19.4128C12.5326 19.4649 12.5737 19.5088 12.6239 19.5399C12.6742 19.5709 12.7317 19.5881 12.7908 19.5897V19.6776C12.6929 19.6776 12.5994 19.6664 12.5026 19.6664C12.4058 19.6664 12.3168 19.6776 12.2267 19.6776C12.0008 19.3748 11.7963 19.0565 11.6148 18.7252H11.4245V19.3583C11.4245 19.5808 11.5358 19.593 11.6649 19.593H11.7183V19.6809C11.5503 19.6809 11.3845 19.6698 11.212 19.6698C11.0719 19.6698 10.9328 19.6809 10.7859 19.6809V19.593H10.8393C10.9506 19.593 11.0485 19.5429 11.0485 19.4339V17.9364Z" fill="#231F20"/>
<path d="M11.5681 18.6065C11.8584 18.6065 12.0053 18.502 12.0131 18.1615C12.0171 18.1057 12.009 18.0497 11.9894 17.9973C11.9699 17.9449 11.9393 17.8973 11.8997 17.8577C11.8601 17.8181 11.8125 17.7875 11.7601 17.768C11.7077 17.7484 11.6517 17.7403 11.5959 17.7443C11.5441 17.7447 11.4925 17.7484 11.4412 17.7554V18.6076L11.5681 18.6065ZM11.4245 18.631H11.4112V17.7309H11.4223C11.4785 17.7244 11.5349 17.7207 11.5914 17.7198C11.651 17.7153 11.7109 17.7237 11.7669 17.7445C11.8229 17.7653 11.8738 17.7979 11.9161 17.8402C11.9583 17.8824 11.991 17.9333 12.0117 17.9894C12.0325 18.0454 12.0409 18.1053 12.0365 18.1648C12.0365 18.5164 11.8673 18.6355 11.5714 18.6355L11.4245 18.631ZM11.4245 18.7122H11.6248V18.7189C11.8062 19.046 12.0072 19.3618 12.2267 19.6646C12.3157 19.6646 12.4103 19.6524 12.5015 19.6524C12.5927 19.6524 12.6862 19.6635 12.7774 19.6646V19.6001C12.7186 19.5976 12.6615 19.5796 12.6119 19.548C12.5622 19.5163 12.5219 19.4721 12.4948 19.4198L11.983 18.6544H11.9975C12.2278 18.5631 12.398 18.4063 12.398 18.1482C12.398 17.7398 12.081 17.6453 11.7116 17.6442C11.5569 17.6442 11.4156 17.6553 11.2387 17.6553C11.0618 17.6553 10.8916 17.6442 10.7937 17.6442V17.7065H10.8349C10.9261 17.7065 11.0574 17.722 11.0574 17.9423V19.4354C11.0574 19.5544 10.9461 19.6079 10.8349 19.6079H10.7937V19.6702C10.935 19.6702 11.0696 19.6579 11.2076 19.6579C11.3722 19.6579 11.5414 19.669 11.7005 19.6702V19.6079H11.6604C11.5269 19.6079 11.4067 19.5912 11.4067 19.3586V18.7178L11.4245 18.7122ZM12.7941 19.6924C12.6951 19.6924 12.6016 19.6813 12.5048 19.6813C12.4081 19.6813 12.3213 19.6924 12.2189 19.688C11.9952 19.3862 11.7919 19.0699 11.6103 18.7412H11.4368V19.3586C11.4368 19.5811 11.5291 19.5811 11.6649 19.5811H11.7305V19.6924H11.7171C11.5491 19.6924 11.3834 19.6813 11.212 19.6813C11.0719 19.6813 10.9339 19.6924 10.7859 19.6924H10.7737V19.5811H10.8393C10.945 19.5811 11.034 19.5344 11.0351 19.4354V17.9368C11.0351 17.7287 10.9306 17.7298 10.8393 17.7265H10.7737V17.6152H10.7826C10.8783 17.6152 11.0596 17.6264 11.2387 17.6264C11.4179 17.6264 11.5547 17.6152 11.7116 17.6152C12.0821 17.6152 12.4236 17.7176 12.4247 18.1448C12.4247 18.4096 12.249 18.5754 12.022 18.6677L12.516 19.4076C12.5422 19.4583 12.5817 19.501 12.6303 19.5309C12.6789 19.5609 12.7348 19.5771 12.7919 19.5778H12.803V19.6891L12.7941 19.6924Z" fill="#231F20"/>
<path d="M14.7879 19.098V19.0914V17.9899C14.7931 17.9542 14.7903 17.9177 14.7796 17.8831C14.7689 17.8486 14.7506 17.8169 14.726 17.7903C14.7015 17.7638 14.6714 17.7431 14.6378 17.7296C14.6042 17.7162 14.5681 17.7105 14.532 17.7129H14.4686V17.625C14.6065 17.625 14.7411 17.6372 14.8791 17.6372C15.0171 17.6372 15.1194 17.625 15.2418 17.625V17.7129H15.1973C15.0738 17.7129 14.9359 17.7363 14.9359 18.0867V19.4218C14.9339 19.5211 14.9395 19.6204 14.9525 19.7189H14.8413L13.3282 18.0311V19.2471C13.3282 19.503 13.3771 19.5909 13.6041 19.5909H13.6542V19.6788C13.5273 19.6788 13.4016 19.6677 13.2748 19.6677C13.1479 19.6677 13.0066 19.6788 12.8754 19.6788V19.5909H12.9154C13.119 19.5909 13.1813 19.453 13.1813 19.2182V17.9777C13.1813 17.9426 13.1744 17.9079 13.1609 17.8756C13.1473 17.8432 13.1275 17.8139 13.1026 17.7893C13.0776 17.7646 13.0481 17.7452 13.0156 17.7321C12.983 17.719 12.9482 17.7125 12.9132 17.7129H12.8754V17.625C12.9866 17.625 13.0979 17.6372 13.2091 17.6372C13.2959 17.6372 13.3816 17.625 13.4706 17.625L14.7879 19.098Z" fill="#231F20"/>
<path d="M14.7945 19.0983L14.8045 19.0894L14.7945 19.0983ZM14.8535 19.708H14.9502C14.9381 19.6139 14.9329 19.5191 14.9347 19.4243V18.0892C14.9347 17.7365 15.0838 17.7031 15.2095 17.7031H15.2328V17.6408C15.1216 17.6408 15.0003 17.6519 14.8835 17.6519C14.7489 17.6519 14.6176 17.6408 14.4852 17.6408V17.7031H14.5364C14.574 17.701 14.6117 17.7072 14.6467 17.7213C14.6817 17.7354 14.7131 17.757 14.7388 17.7846C14.7645 17.8122 14.7838 17.8452 14.7954 17.8811C14.8069 17.917 14.8104 17.955 14.8056 17.9924V19.105V19.1105L14.7967 19.1194L13.4894 17.6419C13.4015 17.6419 13.3159 17.6531 13.228 17.6531C13.1167 17.6531 13.0055 17.6419 12.902 17.6419V17.7042H12.9276C12.9642 17.7038 13.0005 17.7106 13.0345 17.7244C13.0684 17.7381 13.0993 17.7585 13.1253 17.7843C13.1512 17.81 13.1718 17.8407 13.1859 17.8746C13.1999 17.9084 13.207 17.9447 13.2068 17.9813V19.2185C13.2068 19.4543 13.1412 19.6045 12.9298 19.6056H12.8964V19.6679C13.0233 19.6679 13.1546 19.6557 13.2836 19.6557C13.4127 19.6557 13.5284 19.6668 13.6497 19.6679V19.6056H13.6129C13.3815 19.6056 13.3237 19.5044 13.3237 19.2485V18.0013L14.8535 19.708ZM14.9647 19.7336H14.8446L13.3526 18.0714V19.2474C13.3526 19.5033 13.3949 19.5811 13.6163 19.5811H13.6752V19.6924H13.6619C13.5351 19.6924 13.4093 19.6813 13.2836 19.6813C13.1579 19.6813 13.0166 19.6924 12.8842 19.6924H12.8708V19.5811H12.9243C13.119 19.5811 13.1746 19.4554 13.1768 19.2207V17.9779C13.1768 17.9446 13.1702 17.9117 13.1574 17.8809C13.1445 17.8502 13.1257 17.8223 13.102 17.7989C13.0783 17.7756 13.0502 17.7571 13.0193 17.7447C12.9884 17.7322 12.9553 17.726 12.922 17.7265H12.8708V17.6152H12.8842C12.9955 17.6152 13.1067 17.6264 13.218 17.6264C13.3036 17.6264 13.3893 17.6152 13.4872 17.6186L14.7878 19.0716V17.9902C14.7878 17.7565 14.6298 17.7276 14.5442 17.7265H14.4674V17.6152H14.4796C14.6187 17.6152 14.7544 17.6264 14.8913 17.6264C15.0281 17.6264 15.1316 17.6152 15.2529 17.6152H15.2662V17.7265H15.2095C15.0882 17.7265 14.9625 17.7398 14.9603 18.087V19.4221C14.958 19.5207 14.964 19.6193 14.9781 19.7169V19.7313L14.9647 19.7336Z" fill="#231F20"/>
<path d="M16.1496 17.9545H16.1429L15.8704 18.7867H16.42L16.1496 17.9545ZM15.7202 19.2574C15.6916 19.3293 15.67 19.4038 15.6556 19.4799C15.6556 19.5689 15.7791 19.5833 15.8781 19.5833H15.9104V19.6712C15.7925 19.6646 15.6734 19.6601 15.5544 19.6601C15.4353 19.6601 15.3441 19.6601 15.2373 19.6712V19.5833H15.2551C15.3127 19.5833 15.3687 19.5646 15.4148 19.5302C15.461 19.4957 15.4947 19.4472 15.511 19.392L15.9805 18.0435C16.0272 17.925 16.0644 17.803 16.0918 17.6786C16.1847 17.6452 16.2741 17.6027 16.3588 17.5518C16.3663 17.5489 16.3741 17.547 16.3821 17.5462C16.3861 17.5455 16.3903 17.546 16.394 17.5476C16.3978 17.5491 16.401 17.5518 16.4033 17.5551C16.4111 17.5785 16.42 17.6052 16.4289 17.6286L16.9707 19.1661C17.0052 19.2685 17.0408 19.3775 17.0819 19.4654C17.0967 19.5039 17.1239 19.5363 17.1591 19.5577C17.1944 19.579 17.2357 19.5881 17.2766 19.5833H17.2945V19.6712C17.1609 19.6646 17.0285 19.6601 16.8884 19.6601C16.7482 19.6601 16.5969 19.6601 16.4433 19.6712V19.5833H16.4756C16.5435 19.5833 16.6592 19.5711 16.6592 19.4977C16.6476 19.4251 16.6274 19.3541 16.5991 19.2863L16.4878 18.9458H15.8203L15.7202 19.2574Z" fill="#231F20"/>
<path d="M16.1363 17.9588H16.144H16.1363ZM15.887 18.7732H16.4022L16.1463 17.9855L15.887 18.7732ZM15.8526 18.7988L16.134 17.941H16.1496V17.9543V17.941H16.1585L16.4378 18.7988H15.8526ZM16.4533 19.6633C16.5991 19.6577 16.7415 19.6521 16.8817 19.6521C17.0219 19.6521 17.1465 19.6577 17.2744 19.6633V19.6021C17.231 19.6064 17.1873 19.5965 17.1499 19.5738C17.1126 19.5511 17.0837 19.5169 17.0675 19.4763C17.0297 19.3873 16.994 19.2783 16.9562 19.1748L16.4144 17.6384C16.4055 17.615 16.3977 17.5883 16.3899 17.5672C16.384 17.5662 16.378 17.5662 16.3721 17.5672C16.2908 17.618 16.2028 17.6573 16.1107 17.684C16.0835 17.8092 16.0463 17.9319 15.9994 18.0511L15.5299 19.4007C15.5124 19.4583 15.4769 19.5088 15.4287 19.5448C15.3804 19.5808 15.322 19.6005 15.2618 19.601V19.6621C15.3619 19.6566 15.4643 19.651 15.5666 19.651C15.669 19.651 15.7958 19.6566 15.9082 19.6621V19.601H15.8893C15.7936 19.601 15.6601 19.5887 15.6556 19.4841C15.6699 19.4047 15.6919 19.3268 15.7213 19.2516H15.7335H15.7213L15.8181 18.9379H16.5034L16.6213 19.2861C16.6496 19.3554 16.6694 19.4279 16.6803 19.5019C16.6803 19.5921 16.5524 19.5987 16.4856 19.601H16.4567L16.4533 19.6633ZM17.2867 19.6888C17.1543 19.6833 17.0219 19.6777 16.8817 19.6777C16.7415 19.6777 16.5913 19.6777 16.4367 19.6888H16.4233V19.5776H16.4678C16.5368 19.5776 16.6369 19.562 16.638 19.5053C16.6264 19.4343 16.6066 19.3648 16.5791 19.2983L16.4678 18.9646H15.8192L15.7279 19.2616C15.6989 19.3334 15.6773 19.408 15.6634 19.4841C15.6634 19.5565 15.7747 19.5743 15.8715 19.5743H15.9171V19.6855H15.9037C15.7858 19.6799 15.6656 19.6744 15.5488 19.6744C15.432 19.6744 15.3374 19.6744 15.2317 19.6855H15.2184V19.5743H15.2484C15.3034 19.5745 15.3569 19.5568 15.4008 19.5239C15.4448 19.4909 15.4768 19.4446 15.4921 19.3918L15.9627 18.0434C16.0083 17.9213 16.0473 17.7969 16.0795 17.6706C16.1723 17.6373 16.2617 17.5952 16.3465 17.5449C16.3552 17.5406 16.3647 17.5383 16.3743 17.5382C16.3808 17.5376 16.3872 17.5389 16.3929 17.5418C16.3987 17.5448 16.4034 17.5493 16.4066 17.5549C16.4155 17.5783 16.4244 17.605 16.4333 17.6284L16.974 19.1659C17.0096 19.2694 17.0441 19.3773 17.0853 19.4641C17.0986 19.5006 17.1239 19.5315 17.157 19.5517C17.1902 19.5719 17.2292 19.5802 17.2677 19.5754H17.2967V19.6866L17.2867 19.6888Z" fill="#231F20"/>
<path d="M17.4169 17.7723C17.1944 17.7723 17.1866 17.8257 17.1432 18.0404H17.0542C17.0664 17.9581 17.0809 17.8757 17.0898 17.7901C17.1019 17.7076 17.1078 17.6243 17.1076 17.5409H17.1788C17.2011 17.6287 17.2756 17.6254 17.3546 17.6254H18.871C18.95 17.6254 19.0235 17.6254 19.0301 17.5342L19.1002 17.5464C19.0891 17.6254 19.0769 17.7044 19.068 17.7845C19.0591 17.8646 19.0613 17.9425 19.0613 18.0226L18.9734 18.0549C18.9734 17.9436 18.9534 17.7723 18.7509 17.7723H18.2691V19.3365C18.2691 19.5591 18.3715 19.5891 18.5128 19.5891H18.5684V19.677C18.4572 19.677 18.2491 19.6659 18.09 19.6659C17.9131 19.6659 17.7073 19.677 17.5927 19.677V19.5891H17.6483C17.8107 19.5891 17.8931 19.5746 17.8931 19.3421V17.7723H17.4169Z" fill="#231F20"/>
<path d="M18.5706 19.693C18.4593 19.693 18.2491 19.6818 18.0922 19.6818C17.9164 19.6818 17.7106 19.693 17.5949 19.693H17.5815V19.5817H17.6505C17.8129 19.5817 17.8786 19.5817 17.8819 19.3481V17.7905H17.4135V17.7638H17.9075V19.3469C17.9075 19.5828 17.8129 19.6062 17.6505 19.6073H17.6071V19.6696C17.7184 19.6696 17.9209 19.6573 18.0922 19.6573C18.2457 19.6573 18.4415 19.6685 18.5584 19.6696V19.6073H18.515C18.3737 19.6073 18.2591 19.5728 18.2591 19.3414V17.7593H18.7531C18.95 17.7593 18.9756 17.9284 18.9822 18.0374L19.0457 18.0141C19.0457 17.9373 19.0457 17.8605 19.0523 17.7838C19.059 17.707 19.0713 17.6325 19.0824 17.5613L19.0379 17.5535C19.0245 17.638 18.9411 17.6436 18.8677 17.6425H17.339C17.27 17.6425 17.1955 17.6425 17.1688 17.5568H17.1243C17.1236 17.6365 17.1173 17.7161 17.1053 17.7949C17.0976 17.8761 17.0831 17.954 17.072 18.0319H17.1354C17.1743 17.8261 17.1999 17.7593 17.4202 17.7626V17.7893C17.1977 17.7893 17.2066 17.8294 17.1587 18.0463V18.0564H17.0475V18.0419C17.0597 17.9596 17.0742 17.8772 17.082 17.7927C17.094 17.7105 17.1 17.6276 17.0998 17.5446V17.5312H17.1932V17.5401C17.2144 17.6147 17.2678 17.6147 17.3423 17.6169H18.871C18.9522 17.6169 19.0123 17.6169 19.0167 17.5368V17.5234H19.0301L19.1135 17.5368V17.5501C19.1013 17.6291 19.0902 17.7081 19.0813 17.7871C19.0724 17.8661 19.0757 17.944 19.0757 18.0241V18.033H19.0668L18.9633 18.0708V18.0541C18.9555 17.9429 18.9444 17.7838 18.7586 17.7838H18.2891V19.3369C18.2891 19.5594 18.3803 19.5739 18.5205 19.5761H18.5884V19.6874L18.5706 19.693Z" fill="#231F20"/>
<path d="M19.2081 19.5887H19.2493C19.3606 19.5887 19.4718 19.5742 19.4718 19.4207V17.8809C19.4718 17.7285 19.3606 17.7129 19.2493 17.7129H19.2081V17.625C19.3194 17.625 19.4996 17.6372 19.6431 17.6372C19.7867 17.6372 19.9669 17.625 20.106 17.625V17.7129H20.0637C19.958 17.7129 19.8467 17.7285 19.8467 17.8809V19.4207C19.8467 19.5742 19.958 19.5887 20.0637 19.5887H20.106V19.6766C19.9647 19.6766 19.7878 19.6655 19.6409 19.6655C19.4941 19.6655 19.3238 19.6766 19.2081 19.6766V19.5887Z" fill="#231F20"/>
<path d="M20.0926 19.6646V19.6023H20.0648C19.9535 19.6023 19.8345 19.5834 19.8345 19.4209V17.8811C19.8345 17.7187 19.9591 17.7009 20.0648 17.7009H20.0926V17.6386C19.9569 17.6386 19.7866 17.6497 19.6476 17.6497C19.5085 17.6497 19.3394 17.6386 19.2259 17.6386V17.7009H19.2548C19.3583 17.7009 19.484 17.7187 19.484 17.8811V19.4209C19.484 19.5834 19.3583 19.6023 19.2548 19.6023H19.2259V19.6646C19.3372 19.6646 19.5052 19.6524 19.6453 19.6524C19.7855 19.6524 19.958 19.6635 20.0971 19.6646M20.1104 19.6891C19.968 19.6891 19.7922 19.6779 19.6453 19.6779C19.4985 19.6779 19.3283 19.6891 19.2126 19.6891H19.2003V19.5778H19.2548C19.3605 19.5778 19.4584 19.5667 19.4584 19.4232V17.8811C19.4584 17.7376 19.3605 17.7287 19.2548 17.7265H19.2003V17.6152H19.2126C19.3238 17.6152 19.5052 17.6264 19.6476 17.6264C19.79 17.6264 19.9702 17.6152 20.1104 17.6152H20.1215V17.7265H20.0692C19.958 17.7265 19.8645 17.7376 19.8634 17.8811V19.4209C19.8634 19.5645 19.9613 19.5745 20.0692 19.5756H20.1215V19.6868L20.1104 19.6891Z" fill="#231F20"/>
<path d="M21.3219 19.5926C21.8916 19.5926 21.9895 19.0897 21.9895 18.6602C21.9895 18.2308 21.758 17.7112 21.2696 17.7112C20.7556 17.7112 20.6021 18.1696 20.6021 18.5634C20.6021 19.0897 20.8435 19.5926 21.3197 19.5926M21.2752 17.5821C21.9016 17.5821 22.4011 17.9704 22.4011 18.5957C22.4078 18.7442 22.3837 18.8925 22.3303 19.0312C22.2769 19.17 22.1955 19.2962 22.091 19.4019C21.9865 19.5076 21.8613 19.5906 21.7232 19.6456C21.5851 19.7007 21.4371 19.7265 21.2885 19.7216C20.6644 19.7216 20.1882 19.2977 20.1882 18.6658C20.1863 18.5229 20.213 18.381 20.2668 18.2485C20.3207 18.1161 20.4005 17.9958 20.5017 17.8948C20.6028 17.7938 20.7232 17.714 20.8556 17.6603C20.9881 17.6066 21.13 17.5801 21.273 17.5821" fill="#231F20"/>
<path d="M20.5922 18.5638C20.5922 18.1677 20.7468 17.6982 21.2719 17.6982C21.7704 17.6982 22.004 18.2289 22.004 18.6606C22.004 19.0923 21.9028 19.604 21.322 19.604V19.5818C21.8783 19.5818 21.9773 19.0923 21.9784 18.6628C21.9795 18.2334 21.7492 17.7271 21.2719 17.726C20.7679 17.726 20.6189 18.171 20.6166 18.566C20.6166 19.0889 20.8569 19.5807 21.322 19.5818V19.6063C20.8336 19.6063 20.5922 19.0945 20.5922 18.566M20.1805 18.6684C20.1787 18.5238 20.2059 18.3804 20.2604 18.2465C20.3149 18.1126 20.3956 17.9909 20.4978 17.8887C20.6 17.7865 20.7217 17.7057 20.8556 17.6512C20.9895 17.5967 21.1329 17.5696 21.2775 17.5714V17.597C21.1362 17.595 20.996 17.6214 20.865 17.6745C20.7341 17.7277 20.6151 17.8065 20.5152 17.9064C20.4152 18.0062 20.3363 18.1251 20.283 18.256C20.2297 18.3869 20.2032 18.5271 20.205 18.6684C20.205 19.2936 20.6756 19.7108 21.2931 19.7108C21.4398 19.7154 21.5858 19.6897 21.7221 19.6352C21.8583 19.5807 21.9819 19.4987 22.085 19.3942C22.1881 19.2898 22.2685 19.1652 22.3212 19.0282C22.3738 18.8913 22.3977 18.7449 22.3912 18.5983C22.3912 17.9797 21.8983 17.597 21.2786 17.597V17.5714C21.9094 17.5714 22.4157 17.9641 22.4168 18.5983C22.4233 18.7481 22.3988 18.8978 22.3449 19.0377C22.291 19.1777 22.2088 19.3051 22.1034 19.4119C21.9981 19.5187 21.8719 19.6026 21.7326 19.6585C21.5934 19.7143 21.4441 19.7409 21.2942 19.7364C20.6645 19.7364 20.1816 19.3081 20.1816 18.6684" fill="#231F20"/>
<path d="M24.3837 19.098L24.3904 19.0914V17.9899C24.3954 17.9541 24.3924 17.9176 24.3816 17.8831C24.3707 17.8485 24.3523 17.8169 24.3277 17.7903C24.3031 17.7638 24.2729 17.7431 24.2393 17.7297C24.2057 17.7163 24.1695 17.7106 24.1334 17.7129H24.07V17.625C24.2079 17.625 24.3437 17.6372 24.4805 17.6372C24.6174 17.6372 24.7219 17.625 24.8432 17.625V17.7129H24.8009C24.6774 17.7129 24.5395 17.7363 24.5395 18.0867V19.4218C24.5373 19.5211 24.5433 19.6205 24.5573 19.7189H24.446L22.9318 18.0311V19.2471C22.9318 19.503 22.9819 19.5909 23.2077 19.5909H23.2589V19.6788C23.1321 19.6788 23.0063 19.6677 22.8795 19.6677C22.7527 19.6677 22.6125 19.6788 22.4801 19.6788V19.5909H22.5213C22.7238 19.5909 22.7849 19.453 22.7849 19.2182V17.9777C22.7851 17.9427 22.7783 17.908 22.7649 17.8757C22.7515 17.8433 22.7318 17.814 22.7069 17.7893C22.6821 17.7647 22.6526 17.7452 22.6201 17.7321C22.5877 17.719 22.5529 17.7125 22.5179 17.7129H22.4801V17.625C22.5914 17.625 22.7026 17.6372 22.8139 17.6372C22.9029 17.6372 22.9874 17.625 23.0753 17.625L24.3837 19.098Z" fill="#231F20"/>
<path d="M24.3838 19.0983L24.3938 19.0894L24.3838 19.0983ZM24.4428 19.708H24.5395C24.528 19.6139 24.5228 19.5191 24.524 19.4243V18.0892C24.524 17.7354 24.6719 17.7031 24.7988 17.7031H24.8299V17.6408C24.7187 17.6408 24.5985 17.6519 24.4806 17.6519C24.3626 17.6519 24.2158 17.6408 24.0823 17.6408V17.7031H24.1335C24.1711 17.701 24.2087 17.7072 24.2436 17.7213C24.2786 17.7354 24.31 17.757 24.3356 17.7847C24.3612 17.8123 24.3804 17.8452 24.3918 17.8811C24.4032 17.9171 24.4066 17.955 24.4016 17.9924V19.105V19.1105L24.3916 19.1194L23.0832 17.6419C22.9964 17.6419 22.9107 17.6531 22.8217 17.6531C22.7105 17.6531 22.5992 17.6419 22.4969 17.6419V17.7042H22.5225C22.5591 17.7038 22.5955 17.7106 22.6295 17.7244C22.6635 17.7381 22.6944 17.7584 22.7205 17.7842C22.7466 17.81 22.7673 17.8406 22.7814 17.8745C22.7955 17.9083 22.8028 17.9446 22.8028 17.9813V19.2196C22.8028 19.4543 22.7372 19.6045 22.5258 19.6056H22.4969V19.6679C22.6237 19.6679 22.755 19.6557 22.884 19.6557C23.0131 19.6557 23.1288 19.6668 23.2501 19.6679V19.6056H23.2122C22.9819 19.6056 22.9241 19.5044 22.9241 19.2485V18.0013L24.4428 19.708ZM24.554 19.7336H24.4316L22.9408 18.0714V19.2474C22.9408 19.5033 22.9831 19.5811 23.2033 19.5811H23.2668V19.6924H23.2545C23.1277 19.6924 23.0009 19.6813 22.8751 19.6813C22.7494 19.6813 22.6081 19.6924 22.4746 19.6924H22.4646V19.5811H22.5191C22.7127 19.5811 22.7683 19.4554 22.7706 19.2218V17.9779C22.7707 17.9446 22.7642 17.9115 22.7514 17.8808C22.7386 17.85 22.7198 17.822 22.6961 17.7986C22.6723 17.7752 22.6442 17.7567 22.6132 17.7444C22.5822 17.732 22.5491 17.7259 22.5158 17.7265H22.4646V17.6152H22.4768C22.5881 17.6152 22.7049 17.6264 22.8106 17.6264C22.8985 17.6264 22.9831 17.6152 23.0821 17.6197L24.3738 19.0738V17.9902C24.3738 17.7565 24.2158 17.7287 24.1301 17.7265H24.0534V17.6152H24.0667C24.2047 17.6152 24.3404 17.6264 24.4772 17.6264C24.5974 17.6264 24.7176 17.6152 24.8399 17.6152H24.8522V17.7265H24.801C24.6797 17.7265 24.5551 17.741 24.5518 18.087V19.4221C24.5497 19.5206 24.5553 19.6192 24.5685 19.7169V19.7313L24.554 19.7336Z" fill="#231F20"/>
<path d="M25.7444 17.9545L25.4685 18.7867H26.0181L25.7444 17.9545ZM25.315 19.2573C25.2864 19.3293 25.2648 19.4038 25.2505 19.4798C25.2505 19.5689 25.374 19.5833 25.473 19.5833H25.5064V19.6712C25.3884 19.6645 25.2672 19.6601 25.1503 19.6601C25.0335 19.6601 24.9389 19.6601 24.8333 19.6712V19.5833H24.8499C24.9075 19.5833 24.9636 19.5646 25.0097 19.5301C25.0558 19.4956 25.0895 19.4472 25.1058 19.392L25.5798 18.0491C25.6266 17.9306 25.6638 17.8086 25.691 17.6842C25.7843 17.6507 25.8741 17.6082 25.9592 17.5573C25.9667 17.5544 25.9745 17.5525 25.9825 17.5518C25.9914 17.5518 25.997 17.5518 26.0026 17.5607C26.0081 17.5696 26.0204 17.6107 26.0293 17.6341L26.57 19.1717C26.6056 19.274 26.6412 19.3831 26.6812 19.4709C26.696 19.5094 26.7232 19.5419 26.7584 19.5632C26.7937 19.5846 26.835 19.5936 26.8759 19.5889H26.8937V19.6768C26.7613 19.6701 26.6289 19.6656 26.4876 19.6656C26.3464 19.6656 26.1962 19.6656 26.0426 19.6768V19.5889H26.076C26.1428 19.5889 26.2585 19.5766 26.2585 19.5032C26.2469 19.4306 26.2267 19.3597 26.1984 19.2918L26.0871 18.9514H25.4196L25.315 19.2573Z" fill="#231F20"/>
<path d="M25.7323 17.9589H25.7389H25.7323ZM25.483 18.7733H25.997L25.7412 17.9867L25.483 18.7733ZM25.4474 18.7989L25.73 17.9411H25.7445V17.9544V17.9411H25.7534L26.0315 18.7989H25.4474ZM26.0482 19.6633C26.1929 19.6578 26.3364 19.6522 26.4766 19.6522C26.6168 19.6522 26.7414 19.6578 26.8693 19.6633V19.6021H26.8637C26.8205 19.6062 26.777 19.5962 26.7399 19.5735C26.7028 19.5508 26.6741 19.5168 26.6579 19.4764C26.6201 19.3874 26.5845 19.2784 26.5467 19.176L26.0048 17.6385L25.9804 17.5684H25.9748C25.9693 17.5674 25.9636 17.5674 25.9581 17.5684C25.8748 17.6203 25.785 17.6611 25.6911 17.6896C25.6627 17.8145 25.6255 17.9372 25.5798 18.0568L25.1081 19.4063C25.0911 19.464 25.0559 19.5147 25.0078 19.5507C24.9597 19.5868 24.9012 19.6064 24.8411 19.6066V19.6066V19.6678C24.9423 19.6622 25.0436 19.6567 25.1459 19.6567C25.2483 19.6567 25.3751 19.6622 25.4886 19.6678V19.6066H25.4686C25.3729 19.6066 25.2394 19.5944 25.2349 19.4898C25.2498 19.4104 25.2717 19.3326 25.3006 19.2572H25.3128H25.3006L25.3974 18.9435H26.0827L26.2006 19.2917C26.2289 19.361 26.2487 19.4335 26.2596 19.5076C26.2596 19.5977 26.1317 19.6044 26.066 19.6066H26.046L26.0482 19.6633ZM26.8815 19.6889C26.7491 19.6889 26.6168 19.6778 26.4766 19.6778C26.3364 19.6778 26.1862 19.6845 26.0315 19.6889H26.0249V19.5777H26.0705C26.1383 19.5777 26.2396 19.5621 26.2396 19.5053C26.2285 19.4342 26.2087 19.3647 26.1806 19.2984L26.0694 18.9646H25.4207L25.3295 19.2617C25.3012 19.3336 25.28 19.4082 25.2661 19.4842C25.2661 19.5565 25.3773 19.5743 25.473 19.5743H25.5175V19.6856H25.5053C25.3874 19.6856 25.2672 19.6745 25.1504 19.6745C25.0336 19.6745 24.939 19.6811 24.8333 19.6856H24.8199V19.5743H24.85C24.9049 19.5744 24.9583 19.5566 25.0022 19.5237C25.0462 19.4908 25.0782 19.4445 25.0936 19.3919L25.5643 18.0434C25.6021 17.9322 25.6544 17.7875 25.6755 17.6707C25.7682 17.6372 25.8576 17.5951 25.9425 17.545C25.9512 17.5407 25.9607 17.5384 25.9703 17.5383C25.9768 17.5375 25.9833 17.5387 25.9891 17.5417C25.9948 17.5447 25.9995 17.5493 26.0026 17.555L26.0293 17.6284L26.57 19.166C26.6056 19.2695 26.6401 19.3774 26.6813 19.4653C26.6945 19.5016 26.7197 19.5323 26.7526 19.5525C26.7855 19.5727 26.8243 19.5812 26.8626 19.5766H26.8927V19.6878L26.8815 19.6889Z" fill="#231F20"/>
<path d="M27.6225 19.3884C27.6225 19.5064 27.7048 19.542 27.7983 19.5542C27.9276 19.5641 28.0576 19.5619 28.1866 19.5475C28.2419 19.5411 28.2954 19.5238 28.3439 19.4965C28.3924 19.4692 28.435 19.4324 28.4691 19.3884C28.5116 19.3238 28.5424 19.2523 28.5604 19.177H28.6449C28.6127 19.345 28.5715 19.5108 28.5337 19.6766C28.2756 19.6766 28.0163 19.6655 27.7549 19.6655C27.4934 19.6655 27.2375 19.6766 26.9761 19.6766V19.5887H27.0261C27.1374 19.5887 27.2487 19.5742 27.2487 19.3918V17.8809C27.2487 17.7285 27.1374 17.7129 27.0261 17.7129H26.9861V17.625C27.1407 17.625 27.2943 17.6372 27.45 17.6372C27.6058 17.6372 27.7471 17.625 27.8951 17.625V17.7129H27.8205C27.7093 17.7129 27.6214 17.7129 27.6214 17.872L27.6225 19.3884Z" fill="#231F20"/>
<path d="M28.5259 19.6646C28.5593 19.5044 28.5982 19.3486 28.6293 19.1895H28.5693C28.5514 19.2632 28.5209 19.3332 28.4791 19.3965C28.4071 19.4872 28.3025 19.5463 28.1877 19.5611C28.1109 19.5678 28.0341 19.5722 27.9651 19.5722C27.8962 19.5722 27.8539 19.5722 27.8005 19.5656C27.7048 19.5556 27.6125 19.5144 27.6125 19.3887V17.8722C27.6125 17.7087 27.7159 17.7009 27.825 17.7009H27.8861V17.6386C27.7415 17.6386 27.598 17.6497 27.4522 17.6497C27.3065 17.6497 27.1507 17.6386 27.0005 17.6386V17.7009H27.0261C27.1307 17.7009 27.2598 17.7187 27.2598 17.8811V19.392C27.2598 19.5823 27.1318 19.6023 27.0261 19.6023H26.9983V19.6646C27.252 19.6646 27.5068 19.6524 27.7615 19.6524C28.0163 19.6524 28.2722 19.6635 28.527 19.6646M28.537 19.6891C28.2778 19.6891 28.0197 19.6779 27.7582 19.6779C27.4967 19.6779 27.2409 19.6891 26.9794 19.6891H26.9672V19.5778H27.0261C27.1374 19.5778 27.2331 19.5678 27.2353 19.3942V17.8811C27.2353 17.7376 27.1329 17.7287 27.0261 17.7265H26.9727V17.6152H26.985C27.1418 17.6152 27.2943 17.6264 27.45 17.6264C27.6058 17.6264 27.746 17.6152 27.895 17.6152H27.9062V17.7265H27.8205C27.7092 17.7265 27.6358 17.7265 27.6336 17.8722V19.3887C27.6336 19.4999 27.7059 19.5277 27.7983 19.5411C27.8494 19.5411 27.9095 19.5467 27.9607 19.5467C28.035 19.5468 28.1093 19.543 28.1832 19.5355C28.2367 19.5292 28.2884 19.5124 28.3353 19.486C28.3823 19.4597 28.4236 19.4243 28.4569 19.382C28.4983 19.3183 28.5284 19.2479 28.5459 19.1739V19.165H28.6572V19.1806C28.6238 19.3486 28.5826 19.5144 28.5459 19.6802V19.6891H28.537Z" fill="#231F20"/>
<path d="M28.5592 17.8524H28.5959C28.636 17.8524 28.6549 17.8224 28.6549 17.7734C28.6562 17.7648 28.6557 17.7561 28.6531 17.7477C28.6506 17.7394 28.6463 17.7317 28.6404 17.7253C28.6345 17.7189 28.6273 17.7139 28.6192 17.7107C28.6111 17.7074 28.6024 17.7061 28.5937 17.7067H28.5592V17.8524ZM28.4557 18.016V18.0004C28.4936 18.0004 28.5002 18.0004 28.5002 17.9726V17.7434C28.5002 17.7111 28.5002 17.7 28.4569 17.7022V17.69H28.6148C28.6694 17.69 28.7194 17.7156 28.7194 17.7723C28.7193 17.7939 28.712 17.8147 28.6987 17.8317C28.6854 17.8486 28.6669 17.8606 28.646 17.8658L28.6972 17.9359C28.7161 17.9635 28.739 17.9882 28.765 18.0093V18.0193H28.705C28.676 18.0193 28.6504 17.9581 28.5937 17.8769H28.5592V17.9793C28.5592 17.9993 28.567 17.9982 28.6048 18.0037V18.0193L28.4557 18.016ZM28.6093 18.1039C28.6595 18.1052 28.709 18.0915 28.7515 18.0645C28.7939 18.0375 28.8273 17.9985 28.8474 17.9524C28.8675 17.9063 28.8734 17.8553 28.8644 17.8059C28.8553 17.7564 28.8317 17.7108 28.7965 17.6748C28.7614 17.6389 28.7163 17.6143 28.667 17.6041C28.6178 17.5939 28.5667 17.5987 28.5201 17.6177C28.4736 17.6368 28.4338 17.6693 28.4059 17.7111C28.378 17.753 28.3632 17.8022 28.3634 17.8524C28.3628 17.9183 28.3883 17.9818 28.4344 18.0289C28.4805 18.076 28.5434 18.103 28.6093 18.1039M28.6093 17.542C28.6704 17.542 28.7302 17.5601 28.781 17.5941C28.8318 17.628 28.8715 17.6763 28.8949 17.7327C28.9184 17.7892 28.9245 17.8513 28.9127 17.9113C28.9009 17.9712 28.8715 18.0263 28.8284 18.0696C28.7852 18.1129 28.7302 18.1425 28.6703 18.1545C28.6104 18.1666 28.5482 18.1606 28.4917 18.1374C28.4351 18.1142 28.3868 18.0747 28.3526 18.024C28.3185 17.9732 28.3002 17.9136 28.3 17.8524C28.2992 17.8116 28.3067 17.7709 28.322 17.733C28.3372 17.6951 28.36 17.6606 28.3888 17.6317C28.4177 17.6027 28.4521 17.5798 28.4899 17.5644C28.5278 17.549 28.5684 17.5414 28.6093 17.542" fill="#231F20"/>
<path d="M10.2507 7.24829C10.2507 6.26373 10.5426 5.30127 11.0896 4.48259C11.6365 3.66391 12.4139 3.02577 13.3234 2.64884C14.233 2.27191 15.2339 2.17312 16.1996 2.36496C17.1653 2.55679 18.0524 3.03064 18.7488 3.7266C19.4453 4.42256 19.9197 5.30938 20.1122 6.27494C20.3047 7.2405 20.2065 8.24146 19.8302 9.15127C19.4539 10.0611 18.8163 10.8389 17.998 11.3864C17.1797 11.9338 16.2174 12.2264 15.2328 12.2271C14.5787 12.2276 13.9308 12.0993 13.3263 11.8493C12.7218 11.5994 12.1725 11.2327 11.7098 10.7703C11.2471 10.3079 10.8801 9.75886 10.6297 9.15453C10.3794 8.55019 10.2506 7.90243 10.2507 7.24829Z" fill="white" fill-opacity="0.8"/>
<path d="M15.2329 12.3165C12.3803 12.3298 10.0316 10.0179 10.0316 7.20532C10.035 4.13017 12.3836 2.00293 15.2329 2.00293H16.568C19.3872 2.00293 21.9606 4.12794 21.9606 7.2042C21.9606 10.0168 19.3872 12.3154 16.568 12.3154L15.2329 12.3165ZM15.244 2.43016C14.3104 2.43016 13.3977 2.70702 12.6214 3.22573C11.8451 3.74444 11.24 4.4817 10.8827 5.34429C10.5254 6.20687 10.4319 7.15604 10.6141 8.07175C10.7962 8.98747 11.2458 9.82861 11.906 10.4888C12.5662 11.149 13.4073 11.5986 14.3231 11.7807C15.2388 11.9629 16.1879 11.8694 17.0505 11.5121C17.9131 11.1548 18.6504 10.5498 19.1691 9.77345C19.6878 8.99714 19.9647 8.08446 19.9647 7.1508C19.9647 5.89939 19.4678 4.69918 18.5832 3.81398C17.6986 2.92878 16.4988 2.43104 15.2474 2.43016H15.244ZM14.1759 9.94224V4.35936C13.6112 4.57584 13.1253 4.95855 12.7826 5.45694C12.4399 5.95533 12.2564 6.54595 12.2564 7.1508C12.2564 7.75565 12.4399 8.34627 12.7826 8.84466C13.1253 9.34305 13.6112 9.72576 14.1759 9.94224V9.94224ZM18.2368 7.1508C18.2363 6.54568 18.0524 5.95493 17.7094 5.45641C17.3664 4.9579 16.8804 4.57502 16.3154 4.35824V9.94336C16.8805 9.72672 17.3666 9.34387 17.7096 8.84532C18.0526 8.34678 18.2364 7.75596 18.2368 7.1508V7.1508Z" fill="#126BAC"/>
</g>
<defs>
<clipPath id="clip0_514_1013">
<rect width="30.0161" height="22" fill="white" transform="translate(0.991943)"/>
</clipPath>
</defs>
</svg>
