<svg width="36" height="22" viewBox="0 0 36 22" fill="none" xmlns="http://www.w3.org/2000/svg">
<g clip-path="url(#clip0_519_891)">
<path d="M1.15784 1.1331V20.8668C1.15784 21.2835 1.4968 21.6219 1.9129 21.6219H22.8656C28.7323 21.6219 33.4881 16.8661 33.4881 10.9994C33.4881 5.13276 28.7323 0.376953 22.8656 0.376953H1.91344C1.4968 0.376953 1.15838 0.715916 1.15838 1.13201L1.15784 1.1331Z" fill="white" fill-opacity="0.8"/>
<path d="M3.71139 8.61328H2.37292V13.2881H3.70433C4.41213 13.2881 4.92384 13.1214 5.37253 12.7482C5.90596 12.3066 6.22102 11.6417 6.22102 10.954C6.22102 9.57422 5.19001 8.61328 3.71139 8.61328ZM4.77663 12.1251C4.49036 12.3837 4.11771 12.4967 3.52888 12.4967H3.28389V9.40528H3.52888C4.11771 9.40528 4.47515 9.51066 4.77663 9.78336C5.09223 10.0642 5.28127 10.4993 5.28127 10.9469C5.28127 11.3945 5.09169 11.8443 4.77663 12.1251Z" fill="#261F20"/>
<path d="M7.55189 8.61328H6.64038V13.2881H7.55189V8.61328Z" fill="#261F20"/>
<path d="M9.78178 10.4069C9.23476 10.2043 9.07397 10.0707 9.07397 9.81865C9.07397 9.52423 9.36025 9.30043 9.75299 9.30043C10.0262 9.30043 10.2506 9.41287 10.4885 9.67905L10.966 9.05436C10.5738 8.71159 10.1044 8.53613 9.5922 8.53613C8.76489 8.53613 8.13422 9.11085 8.13422 9.87569C8.13422 10.5199 8.4281 10.8497 9.2842 11.1577C9.64109 11.2837 9.82252 11.3673 9.91432 11.4238C10.0963 11.5428 10.1881 11.7112 10.1881 11.9073C10.1881 12.2859 9.88662 12.5668 9.47975 12.5668C9.04518 12.5668 8.69481 12.3495 8.48459 11.9437L7.89575 12.5108C8.31565 13.1273 8.8203 13.4006 9.51397 13.4006C10.4619 13.4006 11.1268 12.7705 11.1268 11.866C11.1268 11.1229 10.8193 10.7867 9.78178 10.4075V10.4069Z" fill="#261F20"/>
<path d="M11.4141 10.9539C11.4141 12.3277 12.4929 13.3934 13.8819 13.3934C14.2741 13.3934 14.6104 13.3163 15.0248 13.1213V12.0479C14.6603 12.4124 14.3371 12.5596 13.9237 12.5596C13.0052 12.5596 12.3533 11.8936 12.3533 10.9468C12.3533 10.0494 13.0258 9.34164 13.8814 9.34164C14.3159 9.34164 14.6457 9.49645 15.0243 9.86747V8.79463C14.6239 8.59147 14.2948 8.50781 13.9026 8.50781C12.5212 8.50781 11.4136 9.59478 11.4136 10.9539H11.4141Z" fill="#261F20"/>
<path d="M22.255 11.753L21.0083 8.61328H20.0121L21.9959 13.4082H22.4869L24.5066 8.61328H23.518L22.255 11.753Z" fill="#261F20"/>
<path d="M24.9183 13.2881H27.5046V12.4967H25.8298V11.2348H27.4426V10.4428H25.8298V9.40528H27.5046V8.61328H24.9183V13.2881Z" fill="#261F20"/>
<path d="M31.1157 9.9926C31.1157 9.11749 30.5122 8.6123 29.4606 8.6123H28.1085V13.2872H29.0189V11.4093H29.1384L30.4003 13.2872H31.5215L30.0494 11.3175C30.7366 11.1779 31.1152 10.708 31.1152 9.99206L31.1157 9.9926ZM29.2862 10.765H29.0195V9.3489H29.3003C29.8685 9.3489 30.1771 9.58682 30.1771 10.042C30.1771 10.4972 29.8685 10.765 29.2862 10.765Z" fill="#261F20"/>
<path d="M31.842 8.85758C31.842 8.77556 31.785 8.73047 31.6856 8.73047H31.5536V9.14277H31.6519V8.98306L31.7671 9.14277H31.8871L31.7513 8.97274C31.8089 8.95699 31.8415 8.91462 31.8415 8.85758H31.842ZM31.6687 8.91407H31.6519V8.80597H31.6698C31.7187 8.80597 31.7437 8.82336 31.7437 8.85921C31.7437 8.89506 31.7182 8.91407 31.6687 8.91407Z" fill="#261F20"/>
<path d="M31.7057 8.57617C31.5058 8.57617 31.3467 8.73588 31.3467 8.93578C31.3467 9.13568 31.5075 9.29538 31.7057 9.29538C31.904 9.29538 32.0605 9.13351 32.0605 8.93578C32.0605 8.73805 31.9002 8.57617 31.7057 8.57617ZM31.7041 9.23074C31.5466 9.23074 31.4178 9.09928 31.4178 8.93578C31.4178 8.77227 31.5455 8.64027 31.7041 8.64027C31.8627 8.64027 31.9888 8.77444 31.9888 8.93578C31.9888 9.09711 31.8611 9.23074 31.7041 9.23074Z" fill="#261F20"/>
<g filter="url(#filter0_ii_519_891)">
<path d="M20.2716 10.9451C20.2716 12.3124 19.1635 13.4205 17.7962 13.4205C16.4289 13.4205 15.3208 12.3124 15.3208 10.9451C15.3208 9.57787 16.4289 8.46973 17.7962 8.46973C19.1635 8.46973 20.2716 9.57787 20.2716 10.9451Z" fill="url(#paint0_linear_519_891)"/>
<path style="mix-blend-mode:multiply" opacity="0.65" d="M20.2716 10.9451C20.2716 12.3124 19.1635 13.4205 17.7962 13.4205C16.4289 13.4205 15.3208 12.3124 15.3208 10.9451C15.3208 9.57787 16.4289 8.46973 17.7962 8.46973C19.1635 8.46973 20.2716 9.57787 20.2716 10.9451Z" fill="url(#paint1_linear_519_891)"/>
</g>
<path d="M34.0475 0H1.91341C1.28763 0 0.780273 0.507358 0.780273 1.13314V20.8669C0.780273 21.4926 1.28763 22 1.91341 22H34.0475C34.6733 22 35.1807 21.4926 35.1807 20.8669V1.13314C35.1807 0.507358 34.6733 0 34.0475 0ZM33.488 11C33.488 16.8667 28.7322 21.6225 22.8656 21.6225H1.91341C1.49677 21.6225 1.15835 21.2835 1.15835 20.8674V1.13314C1.15835 0.716494 1.49731 0.378074 1.91341 0.378074H22.8656C28.7322 0.378074 33.488 5.13388 33.488 11.0005V11Z" fill="url(#paint2_linear_519_891)"/>
</g>
<defs>
<filter id="filter0_ii_519_891" x="15.3208" y="8.46973" width="5.47712" height="5.47749" filterUnits="userSpaceOnUse" color-interpolation-filters="sRGB">
<feFlood flood-opacity="0" result="BackgroundImageFix"/>
<feBlend mode="normal" in="SourceGraphic" in2="BackgroundImageFix" result="shape"/>
<feColorMatrix in="SourceAlpha" type="matrix" values="0 0 0 0 0 0 0 0 0 0 0 0 0 0 0 0 0 0 127 0" result="hardAlpha"/>
<feOffset dx="0.526316" dy="0.526316"/>
<feGaussianBlur stdDeviation="0.263158"/>
<feComposite in2="hardAlpha" operator="arithmetic" k2="-1" k3="1"/>
<feColorMatrix type="matrix" values="0 0 0 0 0.623529 0 0 0 0 0.145098 0 0 0 0 0.054902 0 0 0 0.65 0"/>
<feBlend mode="normal" in2="shape" result="effect1_innerShadow_519_891"/>
<feColorMatrix in="SourceAlpha" type="matrix" values="0 0 0 0 0 0 0 0 0 0 0 0 0 0 0 0 0 0 127 0" result="hardAlpha"/>
<feOffset dx="0.263158" dy="0.263158"/>
<feGaussianBlur stdDeviation="0.131579"/>
<feComposite in2="hardAlpha" operator="arithmetic" k2="-1" k3="1"/>
<feColorMatrix type="matrix" values="0 0 0 0 0.501961 0 0 0 0 0.129412 0 0 0 0 0.0509804 0 0 0 0.76 0"/>
<feBlend mode="normal" in2="effect1_innerShadow_519_891" result="effect2_innerShadow_519_891"/>
</filter>
<linearGradient id="paint0_linear_519_891" x1="19.0635" y1="12.9289" x2="17.3491" y2="10.2449" gradientUnits="userSpaceOnUse">
<stop stop-color="#FF9200"/>
<stop offset="0.21" stop-color="#FF8D00"/>
<stop offset="0.45" stop-color="#FF7F00"/>
<stop offset="0.62" stop-color="#FF7100"/>
<stop offset="0.82" stop-color="#FF5E00"/>
<stop offset="1" stop-color="#FF5200"/>
</linearGradient>
<linearGradient id="paint1_linear_519_891" x1="18.7925" y1="12.8925" x2="16.2877" y2="7.99605" gradientUnits="userSpaceOnUse">
<stop stop-color="#FF7100" stop-opacity="0"/>
<stop offset="0.03" stop-color="#FF6D00" stop-opacity="0.03"/>
<stop offset="0.21" stop-color="#FF5900" stop-opacity="0.25"/>
<stop offset="0.39" stop-color="#FF4800" stop-opacity="0.42"/>
<stop offset="0.56" stop-color="#FF3B00" stop-opacity="0.56"/>
<stop offset="0.72" stop-color="#FF3200" stop-opacity="0.66"/>
<stop offset="0.86" stop-color="#FF2C00" stop-opacity="0.72"/>
<stop offset="0.98" stop-color="#FF2B00" stop-opacity="0.74"/>
</linearGradient>
<linearGradient id="paint2_linear_519_891" x1="26.7863" y1="19.8154" x2="20.9075" y2="5.42394" gradientUnits="userSpaceOnUse">
<stop stop-color="#FF9200"/>
<stop offset="0.21" stop-color="#FF8D00"/>
<stop offset="0.45" stop-color="#FF7F00"/>
<stop offset="0.62" stop-color="#FF7100"/>
<stop offset="0.82" stop-color="#FF5E00"/>
<stop offset="1" stop-color="#FF5200"/>
</linearGradient>
<clipPath id="clip0_519_891">
<rect width="34.4395" height="22" fill="white" transform="translate(0.780273)"/>
</clipPath>
</defs>
</svg>
